<svg class="thumb" width="473" height="347" viewBox="0,0,473,347" xmlns="http://www.w3.org/2000/svg" xmlns:inkscape="http://www.inkscape.org/namespaces/inkscape" xmlns:sodipodi="http://sodipodi.sourceforge.net/DTD/sodipodi-0.dtd" xmlns:xlink="http://www.w3.org/1999/xlink" xmlns:ns1="http://www.inkscape.org/namespaces/inkscape" xmlns:sketch="http://www.bohemiancoding.com/sketch/ns" data-guid="b32f3005-a778-4a3e-80a4-5f9757a529ac"><defs></defs><g><g transform="matrix(-0.343,-0.1901,0.1901,-0.343,222.0241,348.5829)"><svg width="510" height="443.015" viewBox="-5,25.16,510,443.015" class="thumb"><defs><linearGradient x1="0" y1="0.5" x2="1" y2="0.5" id="linearGradientSk6j9kulw18u"><stop offset="0%" stop-color="#31e8e8" stop-opacity="0.6"></stop><stop offset="100%" stop-color="#31e8e8" stop-opacity="0.6"></stop></linearGradient></defs><g></g><g><polygon points="125,463.175 0,246.667 125,30.16 374.999,30.16 500,246.667 374.999,463.175 " fill="url('#linearGradientSk6j9kulw18u')"></polygon></g></svg></g><g transform="matrix(-0.343,-0.1901,0.1901,-0.343,220.8381,249.5089)"><svg width="510" height="443.015" viewBox="-5,25.16,510,443.015" class="thumb"><defs><linearGradient x1="0" y1="0.5" x2="1" y2="0.5" id="linearGradientSk6j9kulw190"><stop offset="0%" stop-color="#31e89f" stop-opacity="0.6"></stop><stop offset="100%" stop-color="#31e89f" stop-opacity="0.6"></stop></linearGradient></defs><g></g><g><polygon points="125,463.175 0,246.667 125,30.16 374.999,30.16 500,246.667 374.999,463.175 " fill="url('#linearGradientSk6j9kulw190')"></polygon></g></svg></g><g transform="matrix(-0.343,-0.1901,0.1901,-0.343,304.3961,296.1999)"><svg width="510" height="443.015" viewBox="-5,25.16,510,443.015" class="thumb"><defs><linearGradient x1="0" y1="0.5" x2="1" y2="0.5" id="linearGradientSk6j9kulw196"><stop offset="0%" stop-color="#31c6e8" stop-opacity="0.6"></stop><stop offset="100%" stop-color="#31c6e8" stop-opacity="0.6"></stop></linearGradient></defs><g></g><g><polygon points="125,463.175 0,246.667 125,30.16 374.999,30.16 500,246.667 374.999,463.175 " fill="url('#linearGradientSk6j9kulw196')"></polygon></g></svg></g><g transform="matrix(0.5,0,0,0.5,214.625,72.5)"><svg width="133.5" height="374" style="overflow: visible;"><defs><linearGradient x1="0" y1="0.5" x2="1" y2="0.5" id="linearGradientSk6j9kulw19e"><stop offset="0%" stop-color="#000000"></stop><stop offset="100%" stop-color="#000000"></stop></linearGradient></defs><g transform="matrix(1,0,0,1,0,235.5)"><path d="M 33-51L 33-51L 28.3-35.8L 44-35.8L 39.3-51Q 38.9-51.9  38.45-52.3Q 38-52.7  37.4-52.7L 37.4-52.7L 34.9-52.7Q 34.3-52.7  33.85-52.3Q 33.4-51.9  33-51ZM 27.3-17.6L 27.3-3.6Q 27.3-1.7  26.45-0.85Q 25.6 0  23.7 0L 23.7 0L 9 0Q 7.1 0  6.25-0.85Q 5.4-1.7  5.4-3.6L 5.4-3.6L 5.4-30Q 5.4-33  6.35-36.9Q 7.3-40.8  9.3-46L 9.3-46L 18-68.7Q 18.6-70.4  19.85-71.2Q 21.1-72  23.1-72L 23.1-72L 50-72Q 51.9-72  53.15-71.2Q 54.4-70.4  55-68.7L 55-68.7L 63.7-46Q 65.7-40.8  66.65-36.9Q 67.6-33  67.6-30L 67.6-30L 67.6-3.6Q 67.6-1.7  66.75-0.85Q 65.9 0  64 0L 64 0L 48.9 0Q 46.9 0  45.95-0.85Q 45-1.7  45-3.6L 45-3.6L 45-17.6L 27.3-17.6ZM 124.5 0L 81.9 0Q 80 0  79.15-0.85Q 78.3-1.7  78.3-3.6L 78.3-3.6L 78.3-15.5Q 78.3-17.4  79.15-18.25Q 80-19.1  81.9-19.1L 81.9-19.1L 91.8-19.1L 91.8-52.7L 81.9-52.7Q 80-52.7  79.15-53.55Q 78.3-54.4  78.3-56.3L 78.3-56.3L 78.3-68.4Q 78.3-70.3  79.15-71.15Q 80-72  81.9-72L 81.9-72L 124.5-72Q 126.4-72  127.25-71.15Q 128.1-70.3  128.1-68.4L 128.1-68.4L 128.1-56.3Q 128.1-54.4  127.25-53.55Q 126.4-52.7  124.5-52.7L 124.5-52.7L 114.8-52.7L 114.8-19.1L 124.5-19.1Q 126.4-19.1  127.25-18.25Q 128.1-17.4  128.1-15.5L 128.1-15.5L 128.1-3.6Q 128.1-1.7  127.25-0.85Q 126.4 0  124.5 0L 124.5 0Z" data-textpath="AI" data-text-anchor="middle" data-font-size="100" data-letterspacing="0" data-side="left" data-offset="0.5" data-dx="0" data-dy="0" data-xmlspace="preserve" data-href="" data-font="Bungee" data-font-src="/Content/clientfonts/bungee.woff" data-font-scale="contain" transform="translate(0,0)" data-x="0" data-y="0" fill="url('#linearGradientSk6j9kulw19e')"></path></g></svg></g><g transform="matrix(0.5,0,0,0.5,125.125,121.5)"><svg width="279.5" height="374" style="overflow: visible;"><defs><linearGradient x1="0" y1="0.5" x2="1" y2="0.5" id="linearGradientSk6j9kulw19l"><stop offset="0%" stop-color="#000000"></stop><stop offset="100%" stop-color="#000000"></stop></linearGradient></defs><g transform="matrix(1,0,0,1,0,235.5)"><path d="M 25.5 0L 25.5 0L 10.5 0Q 8.6 0  7.75-0.85Q 6.9-1.7  6.9-3.6L 6.9-3.6L 6.9-68.4Q 6.9-70.3  7.75-71.15Q 8.6-72  10.5-72L 10.5-72L 20.9-72Q 22.8-72  24.15-71.4Q 25.5-70.8  26.8-69.3L 26.8-69.3L 46.2-47.1L 46.2-68.4Q 46.2-70.3  47.05-71.15Q 47.9-72  49.8-72L 49.8-72L 64.8-72Q 66.7-72  67.55-71.15Q 68.4-70.3  68.4-68.4L 68.4-68.4L 68.4-3.6Q 68.4-1.7  67.55-0.85Q 66.7 0  64.8 0L 64.8 0L 49.8 0Q 47.9 0  47.05-0.85Q 46.2-1.7  46.2-3.6L 46.2-3.6L 46.2-15.9L 29.1-36.6L 29.1-3.6Q 29.1-1.7  28.25-0.85Q 27.4 0  25.5 0ZM 143.20000000000002-53L 143.20000000000002-18.9Q 143.20000000000002-14.3  141.85000000000002-10.55Q 140.5-6.8  137.05-4.15Q 133.60000000000002-1.5  127.55000000000001 0Q 121.50000000000001 1.5  112.20000000000002 1.5L 112.20000000000002 1.5Q 102.9 1.5  96.80000000000001 0Q 90.70000000000002-1.5  87.25000000000001-4.15Q 83.80000000000001-6.8  82.45000000000002-10.55Q 81.10000000000001-14.3  81.10000000000001-18.9L 81.10000000000001-18.9L 81.10000000000001-53Q 81.10000000000001-57.6  82.45000000000002-61.35Q 83.80000000000001-65.1  87.25000000000001-67.8Q 90.70000000000002-70.5  96.80000000000001-72Q 102.9-73.5  112.20000000000002-73.5L 112.20000000000002-73.5Q 121.50000000000001-73.5  127.55000000000001-72Q 133.60000000000002-70.5  137.05-67.8Q 140.5-65.1  141.85000000000002-61.35Q 143.20000000000002-57.6  143.20000000000002-53L 143.20000000000002-53ZM 103.80000000000001-49.4L 103.80000000000001-22.5Q 103.80000000000001-20.5  105.30000000000001-19.15Q 106.80000000000001-17.8  112.20000000000002-17.8L 112.20000000000002-17.8Q 117.60000000000001-17.8  119.10000000000001-19.15Q 120.60000000000001-20.5  120.60000000000001-22.5L 120.60000000000001-22.5L 120.60000000000001-49.4Q 120.60000000000001-51.3  119.10000000000001-52.65Q 117.60000000000001-54  112.20000000000002-54L 112.20000000000002-54Q 106.80000000000001-54  105.30000000000001-52.65Q 103.80000000000001-51.3  103.80000000000001-49.4L 103.80000000000001-49.4ZM 189.40000000000003 0L 189.40000000000003 0L 173.20000000000002 0Q 171.30000000000004 0  170.45000000000002-0.85Q 169.60000000000002-1.7  169.60000000000002-3.6L 169.60000000000002-3.6L 169.60000000000002-52.7L 154.90000000000003-52.7Q 153.00000000000003-52.7  152.15000000000003-53.55Q 151.30000000000004-54.4  151.30000000000004-56.3L 151.30000000000004-56.3L 151.30000000000004-68.4Q 151.30000000000004-70.3  152.15000000000003-71.15Q 153.00000000000003-72  154.90000000000003-72L 154.90000000000003-72L 207.70000000000005-72Q 209.60000000000002-72  210.45000000000005-71.15Q 211.3-70.3  211.3-68.4L 211.3-68.4L 211.3-56.3Q 211.3-54.4  210.45000000000005-53.55Q 209.60000000000002-52.7  207.70000000000005-52.7L 207.70000000000005-52.7L 193.00000000000003-52.7L 193.00000000000003-3.6Q 193.00000000000003-1.7  192.15000000000003-0.85Q 191.3 0  189.40000000000003 0ZM 271 0L 271 0L 224.60000000000002 0Q 222.70000000000002 0  221.85000000000002-0.85Q 221.00000000000003-1.7  221.00000000000003-3.6L 221.00000000000003-3.6L 221.00000000000003-68.4Q 221.00000000000003-70.3  221.85000000000002-71.15Q 222.70000000000002-72  224.60000000000002-72L 224.60000000000002-72L 271-72Q 272.90000000000003-72  273.75-71.15Q 274.6-70.3  274.6-68.4L 274.6-68.4L 274.6-56.7Q 274.6-54.8  273.75-53.95Q 272.90000000000003-53.1  271-53.1L 271-53.1L 243.40000000000003-53.1L 243.40000000000003-45.4L 262.90000000000003-45.4Q 264.8-45.4  265.65000000000003-44.55Q 266.5-43.7  266.5-41.8L 266.5-41.8L 266.5-31.1Q 266.5-29.2  265.65000000000003-28.35Q 264.8-27.5  262.90000000000003-27.5L 262.90000000000003-27.5L 243.40000000000003-27.5L 243.40000000000003-18.9L 271-18.9Q 272.90000000000003-18.9  273.75-18.05Q 274.6-17.2  274.6-15.3L 274.6-15.3L 274.6-3.6Q 274.6-1.7  273.75-0.85Q 272.90000000000003 0  271 0Z" data-textpath="Note" data-text-anchor="middle" data-font-size="100" data-letterspacing="0" data-side="left" data-offset="0.5" data-dx="0" data-dy="0" data-xmlspace="preserve" data-href="" data-font="Bungee" data-font-src="/Content/clientfonts/bungee.woff" data-font-scale="contain" transform="translate(0,0)" data-x="0" data-y="0" fill="url('#linearGradientSk6j9kulw19l')"></path></g></svg></g></g></svg>